HIERARCHY
ROOT Hips
{
	OFFSET 0.000000 71.427986 0.000000
	CHANNELS 6 Xposition Yposition Zposition Xrotation Yrotation Zrotation
	JOINT Pelvis
	{
		OFFSET 0.000000 0.000000 0.000000
		CHANNELS 3 Xrotation Yrotation Zrotation
		JOINT LeftUpLeg
		{
			OFFSET 6.797100 -2.508499 -1.318700
			CHANNELS 3 Xrotation Yrotation Zrotation
			JOINT LeftLeg
			{
				OFFSET 0.069008 -29.241863 0.690200
				CHANNELS 3 Xrotation Yrotation Zrotation
				JOINT LeftFoot
				{
					OFFSET -0.069008 -29.568123 -0.266800
					CHANNELS 3 Xrotation Yrotation Zrotation
					JOINT LeftToeBase
					{
						OFFSET 3.145500 -8.631000 16.059900
						CHANNELS 3 Xrotation Yrotation Zrotation
						End Site
						{
							OFFSET 0.000000 18.501587 0.000000
						}
					}
				}
			}
			JOINT Left_ShortSleeve
			{
				OFFSET 0.265923 -10.480953 1.153800
				CHANNELS 3 Xrotation Yrotation Zrotation
				End Site
				{
					OFFSET 1.725763 19.823879 0.000000
				}
			}
		}
		JOINT RightUpLeg
		{
			OFFSET -6.797100 -2.508499 -1.318700
			CHANNELS 3 Xrotation Yrotation Zrotation
			JOINT RightLeg
			{
				OFFSET -0.082453 -29.241932 0.688000
				CHANNELS 3 Xrotation Yrotation Zrotation
				JOINT RightFoot
				{
					OFFSET 0.082453 -29.568058 -0.264600
					CHANNELS 3 Xrotation Yrotation Zrotation
					JOINT RightToeBase
					{
						OFFSET -3.115300 -8.682800 16.113400
						CHANNELS 3 Xrotation Yrotation Zrotation
						End Site
						{
							OFFSET 0.000000 18.567114 0.000000
						}
					}
				}
			}
			JOINT Right_ShortSleeve
			{
				OFFSET -0.265923 -10.480953 1.153800
				CHANNELS 3 Xrotation Yrotation Zrotation
				End Site
				{
					OFFSET -1.725766 19.823910 0.000000
				}
			}
		}
	}
	JOINT Spine
	{
		OFFSET 0.000000 13.368103 0.470500
		CHANNELS 3 Xrotation Yrotation Zrotation
		JOINT Spine1
		{
			OFFSET 0.147000 13.837402 0.538800
			CHANNELS 3 Xrotation Yrotation Zrotation
			JOINT Spine2
			{
				OFFSET 0.168000 16.242897 -1.435500
				CHANNELS 3 Xrotation Yrotation Zrotation
				JOINT Neck
				{
					OFFSET 0.217200 18.631500 -1.679100
					CHANNELS 3 Xrotation Yrotation Zrotation
					JOINT Head
					{
						OFFSET 0.000000 6.599396 1.385900
						CHANNELS 3 Xrotation Yrotation Zrotation
						JOINT Hat
						{
							OFFSET -0.532200 27.220596 -10.096100
							CHANNELS 3 Xrotation Yrotation Zrotation
							End Site
							{
								OFFSET 0.000000 22.029861 0.000000
							}
						}
						JOINT HairD
						{
							OFFSET -10.777400 17.437393 -1.325900
							CHANNELS 3 Xrotation Yrotation Zrotation
							JOINT HairD1
							{
								OFFSET -3.290299 -11.051193 1.062200
								CHANNELS 3 Xrotation Yrotation Zrotation
								End Site
								{
									OFFSET 0.000000 11.579437 0.000000
								}
							}
						}
						JOINT HairB
						{
							OFFSET -10.777400 17.437393 1.467900
							CHANNELS 3 Xrotation Yrotation Zrotation
							JOINT HairB1
							{
								OFFSET -1.561200 -12.956299 3.590200
								CHANNELS 3 Xrotation Yrotation Zrotation
								End Site
								{
									OFFSET 0.000000 13.534866 0.000000
								}
							}
						}
						JOINT HairA
						{
							OFFSET 9.713100 17.437393 1.467900
							CHANNELS 3 Xrotation Yrotation Zrotation
							JOINT HairA1
							{
								OFFSET 1.561200 -12.956299 3.590200
								CHANNELS 3 Xrotation Yrotation Zrotation
								End Site
								{
									OFFSET 0.000000 13.534866 0.000000
								}
							}
						}
						JOINT HairC
						{
							OFFSET 9.713100 17.437393 -1.325900
							CHANNELS 3 Xrotation Yrotation Zrotation
							JOINT HairC1
							{
								OFFSET 3.290300 -11.051193 1.062200
								CHANNELS 3 Xrotation Yrotation Zrotation
								End Site
								{
									OFFSET 0.000000 11.579437 0.000000
								}
							}
						}
					}
				}
				JOINT LeftShoulder
				{
					OFFSET 5.101800 15.108002 -2.763700
					CHANNELS 3 Xrotation Yrotation Zrotation
					JOINT LeftArm
					{
						OFFSET 9.825497 2.506317 -1.597400
						CHANNELS 3 Xrotation Yrotation Zrotation
						JOINT LeftForeArm
						{
							OFFSET 21.966244 0.000000 0.000000
							CHANNELS 3 Xrotation Yrotation Zrotation
							JOINT LeftHand
							{
								OFFSET 33.879036 0.000000 0.000000
								CHANNELS 3 Xrotation Yrotation Zrotation
								JOINT LeftHandThumb1
								{
									OFFSET 6.715286 -2.359680 3.363841
									CHANNELS 3 Xrotation Yrotation Zrotation
									JOINT LeftHandThumb2
									{
										OFFSET 2.507072 -1.447464 1.447461
										CHANNELS 3 Xrotation Yrotation Zrotation
										JOINT LeftHandThumb3
										{
											OFFSET 2.898338 -1.673355 1.673357
											CHANNELS 3 Xrotation Yrotation Zrotation
											End Site
											{
												OFFSET -0.295959 3.727692 -0.131651
											}
										}
									}
								}
								JOINT LeftHandIndex1
								{
									OFFSET 14.190811 -0.254547 3.840278
									CHANNELS 3 Xrotation Yrotation Zrotation
									JOINT LeftHandIndex2
									{
										OFFSET 3.551727 0.000000 -0.000000
										CHANNELS 3 Xrotation Yrotation Zrotation
										JOINT LeftHandIndex3
										{
											OFFSET 2.894196 0.000000 0.000000
											CHANNELS 3 Xrotation Yrotation Zrotation
											End Site
											{
												OFFSET -1.000603 2.690872 0.366626
											}
										}
									}
								}
								JOINT LeftHandMiddle1
								{
									OFFSET 13.776489 0.000000 0.000000
									CHANNELS 3 Xrotation Yrotation Zrotation
									JOINT LeftHandMiddle2
									{
										OFFSET 3.438232 0.000000 0.000000
										CHANNELS 3 Xrotation Yrotation Zrotation
										JOINT LeftHandMiddle3
										{
											OFFSET 3.691551 0.000000 0.000000
											CHANNELS 3 Xrotation Yrotation Zrotation
											End Site
											{
												OFFSET -1.082298 3.499527 0.457670
											}
										}
									}
								}
								JOINT LeftHandRing1
								{
									OFFSET 13.966164 -0.268127 -3.067488
									CHANNELS 3 Xrotation Yrotation Zrotation
									JOINT LeftHandRing2
									{
										OFFSET 3.162567 0.000000 0.000000
										CHANNELS 3 Xrotation Yrotation Zrotation
										JOINT LeftHandRing3
										{
											OFFSET 3.324348 0.000000 0.000000
											CHANNELS 3 Xrotation Yrotation Zrotation
											End Site
											{
												OFFSET -0.861900 3.184998 0.405154
											}
										}
									}
								}
								JOINT LeftHandPinky1
								{
									OFFSET 13.131393 -0.168503 -5.746925
									CHANNELS 3 Xrotation Yrotation Zrotation
									JOINT LeftHandPinky2
									{
										OFFSET 2.849182 0.000000 0.000000
										CHANNELS 3 Xrotation Yrotation Zrotation
										JOINT LeftHandPinky3
										{
											OFFSET 2.805038 0.000000 0.000000
											CHANNELS 3 Xrotation Yrotation Zrotation
											End Site
											{
												OFFSET -0.882500 2.642609 0.325652
											}
										}
									}
								}
							}
							JOINT Left_Sleeve
							{
								OFFSET 6.592125 -0.646545 0.805568
								CHANNELS 3 Xrotation Yrotation Zrotation
								End Site
								{
									OFFSET -0.000179 20.275787 -0.000000
								}
							}
						}
					}
				}
				JOINT RightShoulder
				{
					OFFSET -5.731700 15.108002 -2.763700
					CHANNELS 3 Xrotation Yrotation Zrotation
					JOINT RightArm
					{
						OFFSET -9.825497 2.506317 -1.597400
						CHANNELS 3 Xrotation Yrotation Zrotation
						JOINT RightForeArm
						{
							OFFSET -21.966242 0.000000 0.000000
							CHANNELS 3 Xrotation Yrotation Zrotation
							JOINT RightHand
							{
								OFFSET -33.879032 0.000000 0.000000
								CHANNELS 3 Xrotation Yrotation Zrotation
								JOINT RightHandThumb1
								{
									OFFSET -6.715286 -2.359680 3.363841
									CHANNELS 3 Xrotation Yrotation Zrotation
									JOINT RightHandThumb2
									{
										OFFSET -2.507072 -1.447464 1.447461
										CHANNELS 3 Xrotation Yrotation Zrotation
										JOINT RightHandThumb3
										{
											OFFSET -2.898338 -1.673355 1.673357
											CHANNELS 3 Xrotation Yrotation Zrotation
											End Site
											{
												OFFSET 0.295959 3.727692 -0.131651
											}
										}
									}
								}
								JOINT RightHandIndex1
								{
									OFFSET -14.190811 -0.254547 3.840278
									CHANNELS 3 Xrotation Yrotation Zrotation
									JOINT RightHandIndex2
									{
										OFFSET -3.551727 0.000000 -0.000000
										CHANNELS 3 Xrotation Yrotation Zrotation
										JOINT RightHandIndex3
										{
											OFFSET -2.894196 0.000000 0.000000
											CHANNELS 3 Xrotation Yrotation Zrotation
											End Site
											{
												OFFSET 1.000603 2.690872 0.366626
											}
										}
									}
								}
								JOINT RightHandMiddle1
								{
									OFFSET -13.776489 0.000000 0.000000
									CHANNELS 3 Xrotation Yrotation Zrotation
									JOINT RightHandMiddle2
									{
										OFFSET -3.438232 0.000000 0.000000
										CHANNELS 3 Xrotation Yrotation Zrotation
										JOINT RightHandMiddle3
										{
											OFFSET -3.691551 0.000000 0.000000
											CHANNELS 3 Xrotation Yrotation Zrotation
											End Site
											{
												OFFSET 1.082298 3.499527 0.457670
											}
										}
									}
								}
								JOINT RightHandRing1
								{
									OFFSET -13.966164 -0.268127 -3.067488
									CHANNELS 3 Xrotation Yrotation Zrotation
									JOINT RightHandRing2
									{
										OFFSET -3.162567 0.000000 0.000000
										CHANNELS 3 Xrotation Yrotation Zrotation
										JOINT RightHandRing3
										{
											OFFSET -3.324348 0.000000 0.000000
											CHANNELS 3 Xrotation Yrotation Zrotation
											End Site
											{
												OFFSET 0.861900 3.184998 0.405154
											}
										}
									}
								}
								JOINT RightHandPinky1
								{
									OFFSET -13.131393 -0.168503 -5.746925
									CHANNELS 3 Xrotation Yrotation Zrotation
									JOINT RightHandPinky2
									{
										OFFSET -2.849182 0.000000 0.000000
										CHANNELS 3 Xrotation Yrotation Zrotation
										JOINT RightHandPinky3
										{
											OFFSET -2.805038 0.000000 0.000000
											CHANNELS 3 Xrotation Yrotation Zrotation
											End Site
											{
												OFFSET 0.882500 2.642609 0.325652
											}
										}
									}
								}
							}
							JOINT Right_Sleeve
							{
								OFFSET -6.592125 -0.646545 0.805568
								CHANNELS 3 Xrotation Yrotation Zrotation
								End Site
								{
									OFFSET 0.000179 20.275787 -0.000000
								}
							}
						}
					}
				}
				JOINT Bind_Right_JacketString
				{
					OFFSET -3.534800 11.969597 7.200700
					CHANNELS 3 Xrotation Yrotation Zrotation
					JOINT Bind_Right_JacketString1
					{
						OFFSET -0.319900 -6.102600 2.794100
						CHANNELS 3 Xrotation Yrotation Zrotation
						End Site
						{
							OFFSET 0.000000 6.719452 0.000000
						}
					}
				}
				JOINT Bind_Left_JacketString
				{
					OFFSET 2.904800 11.969597 7.200700
					CHANNELS 3 Xrotation Yrotation Zrotation
					JOINT Bind_Left_JacketString1
					{
						OFFSET 0.364800 -5.904503 3.186800
						CHANNELS 3 Xrotation Yrotation Zrotation
						End Site
						{
							OFFSET 0.000000 6.719513 0.000000
						}
					}
				}
				JOINT HairE
				{
					OFFSET 5.915200 17.612701 -11.592200
					CHANNELS 3 Xrotation Yrotation Zrotation
					JOINT HairE1
					{
						OFFSET 0.289200 -7.171898 -1.284500
						CHANNELS 3 Xrotation Yrotation Zrotation
						End Site
						{
							OFFSET 0.000000 7.291756 0.000000
						}
					}
				}
				JOINT HairF
				{
					OFFSET -0.864800 17.612701 -11.592200
					CHANNELS 3 Xrotation Yrotation Zrotation
					JOINT HairF1
					{
						OFFSET 0.000000 -14.087097 -2.127501
						CHANNELS 3 Xrotation Yrotation Zrotation
						End Site
						{
							OFFSET 0.000000 14.246841 0.000000
						}
					}
				}
				JOINT HairG
				{
					OFFSET -8.087700 17.612701 -11.592200
					CHANNELS 3 Xrotation Yrotation Zrotation
					JOINT HairG1
					{
						OFFSET -0.293600 -6.081398 -0.910100
						CHANNELS 3 Xrotation Yrotation Zrotation
						End Site
						{
							OFFSET 0.000000 6.156120 0.000000
						}
					}
				}
			}
		}
	}
	JOINT Pouch
	{
		OFFSET 0.000000 4.394501 10.847300
		CHANNELS 3 Xrotation Yrotation Zrotation
		End Site
		{
			OFFSET 0.000000 21.880577 0.000000
		}
	}
	JOINT Bag
	{
		OFFSET -13.229000 4.813004 -0.593300
		CHANNELS 3 Xrotation Yrotation Zrotation
		End Site
		{
			OFFSET 0.000000 21.880577 0.000000
		}
	}
	JOINT OccupyGuyFacialAnim_Joint
	{
		OFFSET 1.000000 -70.206398 -1.655000
		CHANNELS 3 Xrotation Yrotation Zrotation
		End Site
		{
			OFFSET 0.000000 21.880577 0.000000
		}
	}
}
MOTION
Frames: 4
Frame Time: 0.033333
-0.907982 66.129974 1.227984 -2.415417 -32.834946 -0.541558 0.000000 0.000001 0.000000 -26.579154 12.994119 17.885035 37.988945 -10.166877 0.430857 -11.072453 0.550107 -8.942842 -0.000000 -0.000002 0.000000 0.000001 0.000002 -0.000001 -9.087782 -13.540907 -13.489776 40.223513 5.634133 -0.345475 -29.818741 -2.887842 7.427486 -0.000000 0.000000 -0.000000 -0.000001 -0.000001 -0.000001 6.296041 1.382318 1.194788 2.658392 0.186415 -0.105370 2.659180 0.179719 -0.100760 0.576243 6.865005 -7.452908 15.803979 5.714800 0.445726 0.000001 -0.000000 -0.000000 0.000001 -0.000000 -0.000000 0.000001 -0.000000 -0.000000 0.000001 -0.000000 0.000000 0.000001 -0.000001 -0.000000 0.000001 -0.000000 0.000000 0.000001 -0.000001 -0.000000 0.000001 -0.000000 -0.000000 0.000001 -0.000000 -0.000000 2.480128 -5.221410 -8.108497 -36.713384 -12.392478 -45.594774 0.000044 -119.283189 0.000037 12.759143 -1.416974 10.934878 5.711858 13.534347 -2.664438 7.474524 16.983018 2.492224 0.000000 0.000002 -0.000001 4.847335 6.709498 -62.054789 9.842943 6.213929 -115.547567 0.000001 0.000002 0.000000 4.775226 6.600553 -65.622559 7.581316 6.845643 -95.853659 -0.000000 0.000000 0.000001 1.241668 5.729586 -76.539687 8.312242 6.731457 -102.031142 -0.000000 -0.000001 -0.000000 0.593441 5.351694 -73.878523 8.296149 2.647959 -101.869546 0.000002 -0.000002 -0.000001 0.000000 0.000001 -0.000001 1.298350 1.694789 0.965020 -49.768788 44.287274 72.019973 0.000001 108.254858 -0.000002 -9.883836 17.126867 -23.775153 10.310203 -11.985204 1.169311 8.282893 -17.635055 -1.888594 0.000001 -0.000003 0.000002 7.368793 -8.077441 62.032133 10.531290 -5.956963 121.105292 0.000001 0.000001 -0.000001 9.493804 -8.764465 65.625974 8.827545 -6.690450 105.729088 0.000000 -0.000000 0.000001 5.686325 -7.056331 65.546143 8.509723 -6.771348 103.017865 0.000001 -0.000001 -0.000003 1.793289 -5.175619 62.945036 8.423549 -6.790560 102.288039 0.000003 -0.000000 0.000002 -0.000000 0.000001 -0.000001 -0.000000 0.000000 0.000000 0.000001 -0.000001 0.000000 -0.000000 0.000000 0.000000 -0.000000 0.000000 0.000000 -0.000000 0.000000 0.000000 0.000001 -0.000001 0.000000 -0.000000 0.000000 0.000000 -0.000000 0.000000 0.000000 -0.000000 0.000000 0.000000 0.000001 -0.000001 0.000000 0.000000 0.000001 0.000000 0.000000 0.000001 0.000000 0.000000 0.000001 0.000000 
-0.662885 65.984238 1.610191 -2.342744 -32.744665 -0.340934 0.000000 0.000002 0.000000 -27.265934 12.833657 17.513134 39.815024 -9.965418 0.452562 -11.810108 0.533654 -8.493439 0.000000 0.000002 -0.000000 -0.000000 0.000001 0.000000 -9.183504 -13.782634 -14.407681 40.465022 6.023709 -0.097703 -30.115926 -2.979052 7.689582 -0.000000 0.000000 -0.000000 -0.000001 -0.000002 -0.000000 6.607315 1.368496 1.083383 2.570646 0.183315 -0.051445 2.571341 0.178020 -0.047385 0.435250 6.844340 -7.466653 15.590551 5.573296 0.573961 -0.000001 0.000002 -0.000000 -0.000001 0.000002 -0.000000 -0.000001 0.000002 -0.000001 -0.000001 0.000002 -0.000000 -0.000001 0.000002 -0.000000 -0.000001 0.000002 -0.000000 -0.000001 0.000002 -0.000000 -0.000001 0.000002 -0.000000 -0.000001 0.000002 -0.000000 2.551153 -5.196402 -8.194328 -35.797564 -12.068044 -46.238940 -0.000015 -118.510448 -0.000001 12.917426 -1.969924 11.235910 5.711857 13.534343 -2.664441 7.474525 16.983016 2.492217 -0.000001 0.000002 0.000000 4.847337 6.709500 -62.054789 9.842945 6.213931 -115.547581 0.000001 0.000001 0.000000 4.775226 6.600551 -65.622559 7.581317 6.845645 -95.853666 0.000002 0.000001 -0.000001 1.241670 5.729586 -76.539680 8.312242 6.731457 -102.031142 -0.000001 0.000002 -0.000001 0.593440 5.351697 -73.878523 8.296154 2.647960 -101.869546 -0.000001 -0.000001 -0.000001 -0.000001 -0.000002 0.000000 1.158299 1.365054 0.824457 -48.737331 44.536395 71.522271 0.000092 108.066351 -0.000102 -9.777528 17.303181 -23.817529 10.310207 -11.985208 1.169310 8.282893 -17.635052 -1.888595 -0.000000 -0.000000 0.000003 7.368794 -8.077444 62.032140 10.531290 -5.956965 121.105292 0.000002 0.000000 0.000000 9.493805 -8.764465 65.625974 8.827547 -6.690449 105.729081 0.000002 -0.000001 -0.000001 5.686328 -7.056333 65.546149 8.509723 -6.771347 103.017865 0.000000 -0.000002 -0.000000 1.793291 -5.175625 62.945029 8.423544 -6.790563 102.288046 0.000002 0.000000 0.000004 0.000000 0.000005 0.000001 -0.000000 -0.000002 0.000001 -0.000000 -0.000000 0.000000 -0.000000 -0.000002 0.000000 -0.000000 -0.000002 0.000000 -0.000000 -0.000002 0.000001 -0.000000 -0.000000 0.000000 -0.000000 -0.000002 0.000000 -0.000000 -0.000002 0.000000 -0.000000 -0.000002 0.000001 -0.000000 -0.000000 0.000000 0.000000 0.000002 0.000000 0.000000 0.000002 0.000000 0.000000 0.000002 0.000000 
-0.418611 65.827026 2.031353 -2.387776 -32.769475 -0.228246 0.000000 0.000003 -0.000000 -28.955303 12.490179 17.629673 43.274040 -9.778122 0.289696 -11.813883 0.107262 -7.911410 0.000000 -0.000001 -0.000000 -0.000001 -0.000000 0.000002 -9.269555 -13.990821 -15.327602 40.762535 6.627263 0.101067 -30.415372 -3.055852 7.888053 0.000000 -0.000000 0.000000 -0.000002 -0.000002 -0.000000 6.928859 1.387531 1.072503 2.495473 0.184481 -0.009671 2.496138 0.180015 -0.005970 0.355145 6.846670 -7.505207 15.397347 5.537791 0.662362 0.000000 0.000000 0.000000 0.000000 0.000000 0.000000 0.000000 0.000000 0.000000 0.000000 0.000000 -0.000000 0.000000 -0.000002 0.000001 0.000000 0.000000 -0.000000 0.000000 -0.000002 0.000001 0.000000 0.000000 0.000000 0.000000 0.000000 0.000000 2.600229 -5.155329 -8.265229 -35.029889 -11.686341 -46.685777 0.000031 -118.204032 0.000025 13.099841 -2.433386 11.464887 5.711859 13.534347 -2.664438 7.474525 16.983016 2.492227 0.000002 0.000001 0.000000 4.847338 6.709500 -62.054789 9.842943 6.213930 -115.547581 -0.000000 0.000000 -0.000000 4.775228 6.600554 -65.622566 7.581318 6.845644 -95.853666 0.000002 0.000001 -0.000001 1.241669 5.729585 -76.539687 8.312243 6.731457 -102.031135 -0.000000 0.000002 -0.000001 0.593443 5.351695 -73.878523 8.296149 2.647958 -101.869546 -0.000001 -0.000001 -0.000001 0.000001 -0.000001 -0.000001 1.082345 1.169261 0.752917 -47.888724 44.731773 71.078077 0.000026 108.001676 -0.000003 -9.664588 17.457060 -23.875596 10.310208 -11.985205 1.169310 8.282889 -17.635055 -1.888593 -0.000003 -0.000002 0.000001 7.368793 -8.077444 62.032140 10.531289 -5.956967 121.105292 0.000001 0.000000 -0.000001 9.493806 -8.764464 65.625981 8.827541 -6.690451 105.729081 0.000001 -0.000003 0.000000 5.686323 -7.056332 65.546149 8.509721 -6.771348 103.017865 0.000002 0.000001 -0.000002 1.793288 -5.175618 62.945036 8.423543 -6.790562 102.288046 -0.000000 0.000000 -0.000001 -0.000000 -0.000001 0.000002 0.000000 0.000003 -0.000000 -0.000000 0.000001 0.000000 0.000000 0.000003 -0.000000 0.000000 0.000003 -0.000000 0.000000 0.000003 -0.000000 -0.000000 0.000001 0.000000 0.000000 0.000003 -0.000000 0.000000 0.000003 -0.000000 0.000000 0.000003 -0.000000 -0.000000 0.000001 0.000000 0.000000 0.000003 -0.000000 0.000000 0.000003 -0.000000 0.000000 0.000003 -0.000000 
-0.179806 65.665909 2.551394 -2.548472 -32.868875 -0.177772 0.000000 0.000002 -0.000000 -30.504783 12.239673 17.830240 46.710393 -9.626494 0.049706 -11.698456 -0.485400 -7.274706 0.000000 0.000001 0.000000 0.000001 0.000001 -0.000000 -9.147403 -14.064748 -16.112592 40.976904 7.134209 0.016465 -30.724872 -3.186406 8.294309 0.000000 -0.000000 0.000000 -0.000000 -0.000000 -0.000001 7.319264 1.390679 1.155512 2.420298 0.183518 0.017296 2.420917 0.179042 0.020729 0.319140 6.865459 -7.562399 15.229157 5.573375 0.730680 -0.000001 0.000000 0.000000 -0.000001 0.000000 0.000000 -0.000001 0.000000 0.000001 -0.000001 0.000000 -0.000001 -0.000001 0.000000 -0.000000 -0.000001 0.000000 -0.000001 -0.000001 0.000000 -0.000000 -0.000001 0.000000 0.000000 -0.000001 0.000000 0.000000 2.621686 -5.116833 -8.306115 -34.486253 -11.329320 -46.841933 -0.000007 -118.228170 -0.000002 13.343926 -2.828058 11.621069 5.711856 13.534348 -2.664445 7.474526 16.983014 2.492234 0.000001 0.000004 -0.000002 4.847337 6.709498 -62.054789 9.842942 6.213930 -115.547581 0.000003 0.000002 -0.000002 4.775229 6.600551 -65.622559 7.581317 6.845642 -95.853666 0.000001 0.000002 -0.000001 1.241669 5.729586 -76.539687 8.312243 6.731455 -102.031142 -0.000001 -0.000001 -0.000002 0.593442 5.351695 -73.878523 8.296150 2.647960 -101.869546 -0.000000 0.000001 0.000003 0.000000 -0.000002 0.000002 1.058880 1.101406 0.731661 -47.222528 44.864135 70.728248 0.000146 108.028621 -0.000159 -9.521246 17.636768 -23.948060 10.310204 -11.985205 1.169311 8.282890 -17.635055 -1.888592 0.000001 -0.000001 0.000001 7.368794 -8.077443 62.032133 10.531289 -5.956966 121.105278 0.000001 0.000001 0.000000 9.493808 -8.764465 65.625974 8.827541 -6.690447 105.729081 0.000002 0.000000 -0.000001 5.686325 -7.056330 65.546149 8.509722 -6.771348 103.017872 0.000001 -0.000000 -0.000002 1.793289 -5.175620 62.945029 8.423543 -6.790566 102.288039 -0.000000 0.000001 -0.000001 0.000003 -0.000000 -0.000001 -0.000000 0.000001 -0.000001 0.000001 -0.000000 -0.000000 -0.000000 0.000001 -0.000000 -0.000000 0.000001 -0.000000 -0.000000 0.000001 -0.000001 0.000001 -0.000000 -0.000000 -0.000000 0.000001 -0.000000 -0.000000 0.000001 -0.000000 -0.000000 0.000001 -0.000001 0.000001 -0.000000 -0.000000 0.000000 0.000002 -0.000000 0.000000 0.000002 -0.000000 0.000000 0.000002 -0.000000 
